<svg width="509" height="1025" viewBox="0 0 509 1025" fill="none" xmlns="http://www.w3.org/2000/svg">
<path d="M0.960412 419.182C0.9847 416.923 2.27553 414.869 4.30034 413.868L409.953 213.26C411.565 212.462 413.45 212.431 415.089 213.173L496.968 250.275C501.579 252.364 501.69 258.871 497.154 261.117L255 381L8.78858 504.106C4.77392 506.113 0.0573882 503.163 0.105649 498.675L0.960412 419.182Z" fill="black"/>
<path d="M213.5 400.5L292.5 357.5L299.5 881L213.5 919V400.5Z" fill="black"/>
<path d="M1 0L410 212.256L1.50123 415L1 0Z" fill="white"/>
<path d="M292.526 361.334C292.51 358.996 293.854 356.862 295.969 355.866L499.443 260.03C503.423 258.156 508 261.059 508 265.458V773.26C508 775.549 506.698 777.639 504.643 778.647L304.579 876.792C300.608 878.74 295.966 875.868 295.936 871.445L292.526 361.334Z" fill="white"/>
<path d="M0.5 508L215.5 401V921.5L1 1025L0.5 508Z" fill="white"/>
</svg>
