<svg width="1566" height="903" viewBox="0 0 1566 903" fill="none" xmlns="http://www.w3.org/2000/svg">
<mask id="path-1-outside-1_18_25" maskUnits="userSpaceOnUse" x="17" y="184" width="711" height="528" fill="black">
<rect fill="white" x="17" y="184" width="711" height="528"/>
<path d="M145.898 710.688C104.688 710.688 73.1445 698.285 51.2695 673.48C29.5898 648.48 18.75 612.445 18.75 565.375V320.453C18.75 276.312 29.4922 242.816 50.9766 219.965C72.6562 197.113 104.297 185.688 145.898 185.688C187.5 185.688 219.043 197.113 240.527 219.965C262.207 242.816 273.047 276.312 273.047 320.453V565.375C273.047 612.445 262.109 648.48 240.234 673.48C218.555 698.285 187.109 710.688 145.898 710.688ZM146.777 615.766C162.402 615.766 170.215 600.629 170.215 570.355V318.695C170.215 293.305 162.598 280.609 147.363 280.609C130.176 280.609 121.582 293.598 121.582 319.574V570.941C121.582 586.957 123.535 598.48 127.441 605.512C131.348 612.348 137.793 615.766 146.777 615.766ZM312.891 706V266.547H415.43V317.523C420.117 299.555 428.125 285.785 439.453 276.215C450.781 266.645 467.383 261.859 489.258 261.859C506.836 261.859 521.777 265.961 534.082 274.164C546.582 282.172 555.371 292.816 560.449 306.098C568.457 291.645 577.832 280.707 588.574 273.285C599.512 265.668 615.039 261.859 635.156 261.859C659.57 261.859 678.32 267.133 691.406 277.68C704.688 288.031 713.867 302.484 718.945 321.039C724.219 339.398 726.855 360.688 726.855 384.906V706H622.266V383.148C622.266 354.828 615.039 340.668 600.586 340.668C592.969 340.668 587.109 343.305 583.008 348.578C578.906 353.656 576.074 360.004 574.512 367.621C572.949 375.238 572.168 382.855 572.168 390.473V706H467.578V383.148C467.578 373.969 466.406 364.789 464.062 355.609C461.914 346.43 456.25 341.84 447.07 341.84C439.258 341.84 433.203 344.672 428.906 350.336C424.609 356 421.68 363.031 420.117 371.43C418.555 379.633 417.773 387.738 417.773 395.746V706H312.891Z"/>
</mask>
<path d="M145.898 710.688C104.688 710.688 73.1445 698.285 51.2695 673.48C29.5898 648.48 18.75 612.445 18.75 565.375V320.453C18.75 276.312 29.4922 242.816 50.9766 219.965C72.6562 197.113 104.297 185.688 145.898 185.688C187.5 185.688 219.043 197.113 240.527 219.965C262.207 242.816 273.047 276.312 273.047 320.453V565.375C273.047 612.445 262.109 648.48 240.234 673.48C218.555 698.285 187.109 710.688 145.898 710.688ZM146.777 615.766C162.402 615.766 170.215 600.629 170.215 570.355V318.695C170.215 293.305 162.598 280.609 147.363 280.609C130.176 280.609 121.582 293.598 121.582 319.574V570.941C121.582 586.957 123.535 598.48 127.441 605.512C131.348 612.348 137.793 615.766 146.777 615.766ZM312.891 706V266.547H415.43V317.523C420.117 299.555 428.125 285.785 439.453 276.215C450.781 266.645 467.383 261.859 489.258 261.859C506.836 261.859 521.777 265.961 534.082 274.164C546.582 282.172 555.371 292.816 560.449 306.098C568.457 291.645 577.832 280.707 588.574 273.285C599.512 265.668 615.039 261.859 635.156 261.859C659.57 261.859 678.32 267.133 691.406 277.68C704.688 288.031 713.867 302.484 718.945 321.039C724.219 339.398 726.855 360.688 726.855 384.906V706H622.266V383.148C622.266 354.828 615.039 340.668 600.586 340.668C592.969 340.668 587.109 343.305 583.008 348.578C578.906 353.656 576.074 360.004 574.512 367.621C572.949 375.238 572.168 382.855 572.168 390.473V706H467.578V383.148C467.578 373.969 466.406 364.789 464.062 355.609C461.914 346.43 456.25 341.84 447.07 341.84C439.258 341.84 433.203 344.672 428.906 350.336C424.609 356 421.68 363.031 420.117 371.43C418.555 379.633 417.773 387.738 417.773 395.746V706H312.891Z" fill="white"/>
<path d="M51.2695 673.48L50.514 674.136L50.5195 674.142L51.2695 673.48ZM50.9766 219.965L50.2511 219.277L50.248 219.28L50.9766 219.965ZM240.527 219.965L239.799 220.65L239.802 220.653L240.527 219.965ZM240.234 673.48L239.482 672.822L239.481 672.822L240.234 673.48ZM127.441 605.512L126.567 605.997L126.573 606.008L127.441 605.512ZM145.898 709.688C104.898 709.688 73.6595 697.357 52.0195 672.819L50.5195 674.142C72.6295 699.213 104.477 711.688 145.898 711.688V709.688ZM52.025 672.825C30.5583 648.071 19.75 612.305 19.75 565.375H17.75C17.75 612.586 28.6214 648.89 50.514 674.136L52.025 672.825ZM19.75 565.375V320.453H17.75V565.375H19.75ZM19.75 320.453C19.75 276.463 30.4553 243.252 51.7051 220.65L50.248 219.28C28.5291 242.381 17.75 276.162 17.75 320.453H19.75ZM51.702 220.653C73.1378 198.059 104.479 186.688 145.898 186.688V184.688C104.114 184.688 72.1747 196.168 50.2511 219.277L51.702 220.653ZM145.898 186.688C187.318 186.688 218.559 198.059 239.799 220.65L241.256 219.28C219.527 196.168 187.682 184.688 145.898 184.688V186.688ZM239.802 220.653C261.245 243.255 272.047 276.465 272.047 320.453H274.047C274.047 276.16 263.169 242.377 241.253 219.277L239.802 220.653ZM272.047 320.453V565.375H274.047V320.453H272.047ZM272.047 565.375C272.047 612.303 261.142 648.068 239.482 672.822L240.987 674.139C263.077 648.893 274.047 612.587 274.047 565.375H272.047ZM239.481 672.822C218.038 697.357 186.899 709.688 145.898 709.688V711.688C187.32 711.688 219.072 699.213 240.987 674.139L239.481 672.822ZM146.777 616.766C150.852 616.766 154.463 615.776 157.574 613.768C160.679 611.762 163.228 608.777 165.244 604.872C169.26 597.09 171.215 585.546 171.215 570.355H169.215C169.215 585.439 167.263 596.599 163.467 603.954C161.576 607.618 159.243 610.309 156.489 612.087C153.74 613.863 150.515 614.766 146.777 614.766V616.766ZM171.215 570.355V318.695H169.215V570.355H171.215ZM171.215 318.695C171.215 305.933 169.306 296.194 165.359 289.616C161.364 282.957 155.319 279.609 147.363 279.609V281.609C154.642 281.609 160.023 284.609 163.644 290.645C167.315 296.763 169.215 306.067 169.215 318.695H171.215ZM147.363 279.609C138.475 279.609 131.697 282.992 127.193 289.799C122.738 296.533 120.582 306.507 120.582 319.574H122.582C122.582 306.665 124.723 297.157 128.861 290.902C132.951 284.721 139.064 281.609 147.363 281.609V279.609ZM120.582 319.574V570.941H122.582V319.574H120.582ZM120.582 570.941C120.582 586.99 122.531 598.732 126.567 605.997L128.316 605.026C124.54 598.229 122.582 586.924 122.582 570.941H120.582ZM126.573 606.008C130.686 613.205 137.495 616.766 146.777 616.766V614.766C138.091 614.766 132.01 611.49 128.31 605.016L126.573 606.008ZM312.891 706H311.891V707H312.891V706ZM312.891 266.547V265.547H311.891V266.547H312.891ZM415.43 266.547H416.43V265.547H415.43V266.547ZM415.43 317.523H414.43L416.397 317.776L415.43 317.523ZM534.082 274.164L533.527 274.996L533.535 275.001L533.543 275.006L534.082 274.164ZM560.449 306.098L559.515 306.455L560.283 308.462L561.324 306.582L560.449 306.098ZM588.574 273.285L589.143 274.108L589.146 274.106L588.574 273.285ZM691.406 277.68L690.779 278.458L690.785 278.463L690.792 278.468L691.406 277.68ZM718.945 321.039L717.981 321.303L717.984 321.315L718.945 321.039ZM726.855 706V707H727.855V706H726.855ZM622.266 706H621.266V707H622.266V706ZM583.008 348.578L583.786 349.206L583.792 349.199L583.797 349.192L583.008 348.578ZM572.168 706V707H573.168V706H572.168ZM467.578 706H466.578V707H467.578V706ZM464.062 355.609L463.089 355.837L463.091 355.847L463.094 355.857L464.062 355.609ZM420.117 371.43L421.1 371.617L421.1 371.613L420.117 371.43ZM417.773 706V707H418.773V706H417.773ZM313.891 706V266.547H311.891V706H313.891ZM312.891 267.547H415.43V265.547H312.891V267.547ZM414.43 266.547V317.523H416.43V266.547H414.43ZM416.397 317.776C421.046 299.956 428.964 286.386 440.098 276.979L438.808 275.451C427.286 285.185 419.188 299.153 414.462 317.271L416.397 317.776ZM440.098 276.979C451.177 267.619 467.51 262.859 489.258 262.859V260.859C467.256 260.859 450.385 265.67 438.808 275.451L440.098 276.979ZM489.258 262.859C506.676 262.859 521.416 266.922 533.527 274.996L534.637 273.332C522.139 265 506.995 260.859 489.258 260.859V262.859ZM533.543 275.006C545.871 282.904 554.517 293.382 559.515 306.455L561.383 305.741C556.225 292.25 547.293 281.44 534.621 273.322L533.543 275.006ZM561.324 306.582C569.276 292.229 578.556 281.422 589.143 274.108L588.006 272.462C577.108 279.992 567.638 291.06 559.575 305.613L561.324 306.582ZM589.146 274.106C599.85 266.651 615.146 262.859 635.156 262.859V260.859C614.933 260.859 599.173 264.685 588.003 272.465L589.146 274.106ZM635.156 262.859C659.442 262.859 677.935 268.107 690.779 278.458L692.034 276.901C678.705 266.159 659.698 260.859 635.156 260.859V262.859ZM690.792 278.468C703.879 288.669 712.951 302.925 717.981 321.303L719.91 320.775C714.783 302.043 705.496 287.394 692.021 276.891L690.792 278.468ZM717.984 321.315C723.226 339.565 725.855 360.757 725.855 384.906H727.855C727.855 360.618 725.211 339.232 719.906 320.763L717.984 321.315ZM725.855 384.906V706H727.855V384.906H725.855ZM726.855 705H622.266V707H726.855V705ZM623.266 706V383.148H621.266V706H623.266ZM623.266 383.148C623.266 368.936 621.458 358.125 617.736 350.834C615.868 347.173 613.503 344.371 610.618 342.486C607.727 340.597 604.37 339.668 600.586 339.668V341.668C604.028 341.668 606.995 342.509 609.524 344.16C612.058 345.815 614.21 348.323 615.955 351.743C619.46 358.611 621.266 369.041 621.266 383.148H623.266ZM600.586 339.668C592.709 339.668 586.538 342.411 582.218 347.964L583.797 349.192C587.681 344.198 593.228 341.668 600.586 341.668V339.668ZM582.23 347.95C578.01 353.174 575.121 359.676 573.532 367.42L575.491 367.822C577.028 360.332 579.802 354.139 583.786 349.206L582.23 347.95ZM573.532 367.42C571.956 375.102 571.168 382.787 571.168 390.473H573.168C573.168 382.924 573.942 375.374 575.491 367.822L573.532 367.42ZM571.168 390.473V706H573.168V390.473H571.168ZM572.168 705H467.578V707H572.168V705ZM468.578 706V383.148H466.578V706H468.578ZM468.578 383.148C468.578 373.883 467.395 364.62 465.031 355.362L463.094 355.857C465.417 364.958 466.578 374.055 466.578 383.148H468.578ZM465.036 355.381C463.926 350.639 461.882 346.976 458.833 344.505C455.781 342.032 451.829 340.84 447.07 340.84V342.84C451.492 342.84 454.962 343.943 457.574 346.059C460.188 348.178 462.05 351.4 463.089 355.837L465.036 355.381ZM447.07 340.84C438.981 340.84 432.616 343.791 428.11 349.732L429.703 350.94C433.79 345.553 439.535 342.84 447.07 342.84V340.84ZM428.11 349.732C423.701 355.542 420.719 362.726 419.134 371.247L421.1 371.613C422.64 363.337 425.517 356.458 429.703 350.94L428.11 349.732ZM419.135 371.243C417.561 379.505 416.773 387.673 416.773 395.746H418.773C418.773 387.804 419.548 379.761 421.1 371.617L419.135 371.243ZM416.773 395.746V706H418.773V395.746H416.773ZM417.773 705H312.891V707H417.773V705Z" fill="#858585" mask="url(#path-1-outside-1_18_25)"/>
<mask id="path-3-outside-2_18_25" maskUnits="userSpaceOnUse" x="733" y="189" width="813" height="523" fill="black">
<rect fill="white" x="733" y="189" width="813" height="523"/>
<path d="M796.09 706V289.398H734.859V190.375H960.445V289.398H899.215V706H796.09ZM1072.07 710.688C1048.63 710.688 1030.66 705.805 1018.16 696.039C1005.86 686.273 997.457 672.699 992.965 655.316C988.473 637.738 986.227 617.23 986.227 593.793V266.547H1091.7V581.488C1091.7 599.066 1093.06 611.371 1095.8 618.402C1098.53 625.238 1104.98 628.656 1115.13 628.656C1126.07 628.656 1132.91 623.773 1135.64 614.008C1138.57 604.242 1140.04 591.645 1140.04 576.215V266.547H1244.62V706H1139.74V659.125C1133.1 675.922 1125.09 688.715 1115.72 697.504C1106.54 706.293 1091.99 710.688 1072.07 710.688ZM1286.81 706V266.547H1391.7V322.504C1395.6 305.707 1402.83 291.449 1413.38 279.73C1424.12 267.816 1438.96 261.859 1457.91 261.859C1488.38 261.859 1510.45 271.234 1524.12 289.984C1537.98 308.734 1544.92 334.418 1544.92 367.035V706H1441.5V377.875C1441.5 369.281 1439.74 361.371 1436.23 354.145C1432.71 346.723 1426.66 343.012 1418.06 343.012C1410.05 343.012 1404.1 345.844 1400.19 351.508C1396.48 356.977 1394.14 363.91 1393.16 372.309C1392.18 380.512 1391.7 388.715 1391.7 396.918V706H1286.81Z"/>
</mask>
<path d="M796.09 706V289.398H734.859V190.375H960.445V289.398H899.215V706H796.09ZM1072.07 710.688C1048.63 710.688 1030.66 705.805 1018.16 696.039C1005.86 686.273 997.457 672.699 992.965 655.316C988.473 637.738 986.227 617.23 986.227 593.793V266.547H1091.7V581.488C1091.7 599.066 1093.06 611.371 1095.8 618.402C1098.53 625.238 1104.98 628.656 1115.13 628.656C1126.07 628.656 1132.91 623.773 1135.64 614.008C1138.57 604.242 1140.04 591.645 1140.04 576.215V266.547H1244.62V706H1139.74V659.125C1133.1 675.922 1125.09 688.715 1115.72 697.504C1106.54 706.293 1091.99 710.688 1072.07 710.688ZM1286.81 706V266.547H1391.7V322.504C1395.6 305.707 1402.83 291.449 1413.38 279.73C1424.12 267.816 1438.96 261.859 1457.91 261.859C1488.38 261.859 1510.45 271.234 1524.12 289.984C1537.98 308.734 1544.92 334.418 1544.92 367.035V706H1441.5V377.875C1441.5 369.281 1439.74 361.371 1436.23 354.145C1432.71 346.723 1426.66 343.012 1418.06 343.012C1410.05 343.012 1404.1 345.844 1400.19 351.508C1396.48 356.977 1394.14 363.91 1393.16 372.309C1392.18 380.512 1391.7 388.715 1391.7 396.918V706H1286.81Z" fill="white"/>
<path d="M796.09 706H795.09V707H796.09V706ZM796.09 289.398H797.09V288.398H796.09V289.398ZM734.859 289.398H733.859V290.398H734.859V289.398ZM734.859 190.375V189.375H733.859V190.375H734.859ZM960.445 190.375H961.445V189.375H960.445V190.375ZM960.445 289.398V290.398H961.445V289.398H960.445ZM899.215 289.398V288.398H898.215V289.398H899.215ZM899.215 706V707H900.215V706H899.215ZM797.09 706V289.398H795.09V706H797.09ZM796.09 288.398H734.859V290.398H796.09V288.398ZM735.859 289.398V190.375H733.859V289.398H735.859ZM734.859 191.375H960.445V189.375H734.859V191.375ZM959.445 190.375V289.398H961.445V190.375H959.445ZM960.445 288.398H899.215V290.398H960.445V288.398ZM898.215 289.398V706H900.215V289.398H898.215ZM899.215 705H796.09V707H899.215V705ZM1018.16 696.039L1017.54 696.822L1017.54 696.827L1018.16 696.039ZM992.965 655.316L991.996 655.564L991.997 655.567L992.965 655.316ZM986.227 266.547V265.547H985.227V266.547H986.227ZM1091.7 266.547H1092.7V265.547H1091.7V266.547ZM1095.8 618.402L1094.86 618.765L1094.87 618.774L1095.8 618.402ZM1135.64 614.008L1134.68 613.72L1134.68 613.729L1134.68 613.738L1135.64 614.008ZM1140.04 266.547V265.547H1139.04V266.547H1140.04ZM1244.62 266.547H1245.62V265.547H1244.62V266.547ZM1244.62 706V707H1245.62V706H1244.62ZM1139.74 706H1138.74V707H1139.74V706ZM1139.74 659.125H1140.74L1138.81 658.757L1139.74 659.125ZM1115.72 697.504L1115.03 696.774L1115.03 696.782L1115.72 697.504ZM1072.07 709.688C1048.75 709.688 1031.03 704.827 1018.78 695.251L1017.54 696.827C1030.29 706.782 1048.51 711.688 1072.07 711.688V709.688ZM1018.78 695.256C1006.67 685.644 998.379 672.27 993.933 655.066L991.997 655.567C996.535 673.129 1005.04 686.903 1017.54 696.822L1018.78 695.256ZM993.934 655.069C989.467 637.591 987.227 617.17 987.227 593.793H985.227C985.227 617.291 987.478 637.885 991.996 655.564L993.934 655.069ZM987.227 593.793V266.547H985.227V593.793H987.227ZM986.227 267.547H1091.7V265.547H986.227V267.547ZM1090.7 266.547V581.488H1092.7V266.547H1090.7ZM1090.7 581.488C1090.7 599.069 1092.06 611.542 1094.86 618.765L1096.73 618.04C1094.07 611.2 1092.7 599.064 1092.7 581.488H1090.7ZM1094.87 618.774C1096.32 622.409 1098.78 625.155 1102.21 626.976C1105.63 628.786 1109.95 629.656 1115.13 629.656V627.656C1110.16 627.656 1106.18 626.818 1103.15 625.209C1100.14 623.612 1098.01 621.231 1096.73 618.031L1094.87 618.774ZM1115.13 629.656C1120.75 629.656 1125.41 628.402 1129.04 625.808C1132.68 623.208 1135.19 619.333 1136.6 614.277L1134.68 613.738C1133.36 618.449 1131.08 621.897 1127.88 624.18C1124.68 626.469 1120.46 627.656 1115.13 627.656V629.656ZM1136.6 614.295C1139.57 604.402 1141.04 591.697 1141.04 576.215H1139.04C1139.04 591.592 1137.57 604.083 1134.68 613.72L1136.6 614.295ZM1141.04 576.215V266.547H1139.04V576.215H1141.04ZM1140.04 267.547H1244.62V265.547H1140.04V267.547ZM1243.62 266.547V706H1245.62V266.547H1243.62ZM1244.62 705H1139.74V707H1244.62V705ZM1140.74 706V659.125H1138.74V706H1140.74ZM1138.81 658.757C1132.21 675.469 1124.27 688.119 1115.03 696.774L1116.4 698.233C1125.92 689.311 1134 676.375 1140.67 659.493L1138.81 658.757ZM1115.03 696.782C1106.12 705.314 1091.87 709.688 1072.07 709.688V711.688C1092.1 711.688 1106.96 707.272 1116.41 698.226L1115.03 696.782ZM1286.81 706H1285.81V707H1286.81V706ZM1286.81 266.547V265.547H1285.81V266.547H1286.81ZM1391.7 266.547H1392.7V265.547H1391.7V266.547ZM1391.7 322.504H1390.7L1392.67 322.73L1391.7 322.504ZM1413.38 279.73L1412.63 279.061L1412.63 279.062L1413.38 279.73ZM1524.12 289.984L1523.31 290.574L1523.31 290.579L1524.12 289.984ZM1544.92 706V707H1545.92V706H1544.92ZM1441.5 706H1440.5V707H1441.5V706ZM1436.23 354.145L1435.32 354.573L1435.33 354.582L1436.23 354.145ZM1400.19 351.508L1399.37 350.94L1399.36 350.946L1400.19 351.508ZM1393.16 372.309L1394.15 372.427L1394.15 372.424L1393.16 372.309ZM1391.7 706V707H1392.7V706H1391.7ZM1287.81 706V266.547H1285.81V706H1287.81ZM1286.81 267.547H1391.7V265.547H1286.81V267.547ZM1390.7 266.547V322.504H1392.7V266.547H1390.7ZM1392.67 322.73C1396.54 306.082 1403.69 291.981 1414.12 280.399L1412.63 279.062C1401.96 290.917 1394.66 305.332 1390.72 322.277L1392.67 322.73ZM1414.12 280.4C1424.64 268.735 1439.19 262.859 1457.91 262.859V260.859C1438.73 260.859 1423.6 266.898 1412.63 279.061L1414.12 280.4ZM1457.91 262.859C1488.17 262.859 1509.88 272.159 1523.31 290.574L1524.93 289.395C1511.01 270.31 1488.58 260.859 1457.91 260.859V262.859ZM1523.31 290.579C1537.01 309.1 1543.92 334.549 1543.92 367.035H1545.92C1545.92 334.287 1538.96 308.368 1524.92 289.39L1523.31 290.579ZM1543.92 367.035V706H1545.92V367.035H1543.92ZM1544.92 705H1441.5V707H1544.92V705ZM1442.5 706V377.875H1440.5V706H1442.5ZM1442.5 377.875C1442.5 369.14 1440.71 361.079 1437.13 353.707L1435.33 354.582C1438.77 361.663 1440.5 369.422 1440.5 377.875H1442.5ZM1437.13 353.716C1435.3 349.858 1432.79 346.914 1429.57 344.942C1426.36 342.972 1422.5 342.012 1418.06 342.012V344.012C1422.21 344.012 1425.69 344.907 1428.53 346.648C1431.36 348.386 1433.63 351.009 1435.32 354.573L1437.13 353.716ZM1418.06 342.012C1409.79 342.012 1403.49 344.958 1399.37 350.94L1401.01 352.076C1404.7 346.73 1410.32 344.012 1418.06 344.012V342.012ZM1399.36 350.946C1395.54 356.58 1393.16 363.678 1392.17 372.193L1394.15 372.424C1395.12 364.142 1397.42 357.373 1401.02 352.069L1399.36 350.946ZM1392.17 372.19C1391.19 380.432 1390.7 388.675 1390.7 396.918H1392.7C1392.7 388.755 1393.18 380.591 1394.15 372.427L1392.17 372.19ZM1390.7 396.918V706H1392.7V396.918H1390.7ZM1391.7 705H1286.81V707H1391.7V705Z" fill="#8F8F8F" mask="url(#path-3-outside-2_18_25)"/>
</svg>
