<svg width="1548" height="903" viewBox="0 0 1548 903" fill="none" xmlns="http://www.w3.org/2000/svg">
<mask id="path-1-outside-1_18_24" maskUnits="userSpaceOnUse" x="585" y="721" width="416" height="152" fill="black">
<rect fill="white" x="585" y="721" width="416" height="152"/>
<path d="M614.8 722V870H586.8V722H614.8ZM635.264 814.2C635.264 803 637.464 793.067 641.864 784.4C646.397 775.733 652.464 769.067 660.064 764.4C667.797 759.733 676.397 757.4 685.864 757.4C694.131 757.4 701.331 759.067 707.464 762.4C713.731 765.733 718.731 769.933 722.464 775V759.2H750.664V870H722.464V853.8C718.864 859 713.864 863.333 707.464 866.8C701.197 870.133 693.931 871.8 685.664 871.8C676.331 871.8 667.797 869.4 660.064 864.6C652.464 859.8 646.397 853.067 641.864 844.4C637.464 835.6 635.264 825.533 635.264 814.2ZM722.464 814.6C722.464 807.8 721.131 802 718.464 797.2C715.797 792.267 712.197 788.533 707.664 786C703.131 783.333 698.264 782 693.064 782C687.864 782 683.064 783.267 678.664 785.8C674.264 788.333 670.664 792.067 667.864 797C665.197 801.8 663.864 807.533 663.864 814.2C663.864 820.867 665.197 826.733 667.864 831.8C670.664 836.733 674.264 840.533 678.664 843.2C683.197 845.867 687.997 847.2 693.064 847.2C698.264 847.2 703.131 845.933 707.664 843.4C712.197 840.733 715.797 837 718.464 832.2C721.131 827.267 722.464 821.4 722.464 814.6ZM806.011 775.4C809.611 770.067 814.544 765.733 820.811 762.4C827.211 759.067 834.478 757.4 842.611 757.4C852.078 757.4 860.611 759.733 868.211 764.4C875.944 769.067 882.011 775.733 886.411 784.4C890.944 792.933 893.211 802.867 893.211 814.2C893.211 825.533 890.944 835.6 886.411 844.4C882.011 853.067 875.944 859.8 868.211 864.6C860.611 869.4 852.078 871.8 842.611 871.8C834.344 871.8 827.078 870.2 820.811 867C814.678 863.667 809.744 859.4 806.011 854.2V870H778.011V722H806.011V775.4ZM864.611 814.2C864.611 807.533 863.211 801.8 860.411 797C857.744 792.067 854.144 788.333 849.611 785.8C845.211 783.267 840.411 782 835.211 782C830.144 782 825.344 783.333 820.811 786C816.411 788.533 812.811 792.267 810.011 797.2C807.344 802.133 806.011 807.933 806.011 814.6C806.011 821.267 807.344 827.067 810.011 832C812.811 836.933 816.411 840.733 820.811 843.4C825.344 845.933 830.144 847.2 835.211 847.2C840.411 847.2 845.211 845.867 849.611 843.2C854.144 840.533 857.744 836.733 860.411 831.8C863.211 826.867 864.611 821 864.611 814.2ZM955.958 871.8C946.891 871.8 938.758 870.2 931.558 867C924.358 863.667 918.624 859.2 914.358 853.6C910.224 848 907.958 841.8 907.558 835H935.758C936.291 839.267 938.358 842.8 941.958 845.6C945.691 848.4 950.291 849.8 955.758 849.8C961.091 849.8 965.224 848.733 968.158 846.6C971.224 844.467 972.758 841.733 972.758 838.4C972.758 834.8 970.891 832.133 967.158 830.4C963.558 828.533 957.758 826.533 949.758 824.4C941.491 822.4 934.691 820.333 929.358 818.2C924.158 816.067 919.624 812.8 915.758 808.4C912.024 804 910.158 798.067 910.158 790.6C910.158 784.467 911.891 778.867 915.358 773.8C918.958 768.733 924.024 764.733 930.558 761.8C937.224 758.867 945.024 757.4 953.958 757.4C967.158 757.4 977.691 760.733 985.558 767.4C993.424 773.933 997.758 782.8 998.558 794H971.758C971.358 789.6 969.491 786.133 966.158 783.6C962.958 780.933 958.624 779.6 953.158 779.6C948.091 779.6 944.158 780.533 941.358 782.4C938.691 784.267 937.358 786.867 937.358 790.2C937.358 793.933 939.224 796.8 942.958 798.8C946.691 800.667 952.491 802.6 960.358 804.6C968.358 806.6 974.958 808.667 980.158 810.8C985.358 812.933 989.824 816.267 993.558 820.8C997.424 825.2 999.424 831.067 999.558 838.4C999.558 844.8 997.758 850.533 994.158 855.6C990.691 860.667 985.624 864.667 978.958 867.6C972.424 870.4 964.758 871.8 955.958 871.8Z"/>
</mask>
<path d="M614.8 722V870H586.8V722H614.8ZM635.264 814.2C635.264 803 637.464 793.067 641.864 784.4C646.397 775.733 652.464 769.067 660.064 764.4C667.797 759.733 676.397 757.4 685.864 757.4C694.131 757.4 701.331 759.067 707.464 762.4C713.731 765.733 718.731 769.933 722.464 775V759.2H750.664V870H722.464V853.8C718.864 859 713.864 863.333 707.464 866.8C701.197 870.133 693.931 871.8 685.664 871.8C676.331 871.8 667.797 869.4 660.064 864.6C652.464 859.8 646.397 853.067 641.864 844.4C637.464 835.6 635.264 825.533 635.264 814.2ZM722.464 814.6C722.464 807.8 721.131 802 718.464 797.2C715.797 792.267 712.197 788.533 707.664 786C703.131 783.333 698.264 782 693.064 782C687.864 782 683.064 783.267 678.664 785.8C674.264 788.333 670.664 792.067 667.864 797C665.197 801.8 663.864 807.533 663.864 814.2C663.864 820.867 665.197 826.733 667.864 831.8C670.664 836.733 674.264 840.533 678.664 843.2C683.197 845.867 687.997 847.2 693.064 847.2C698.264 847.2 703.131 845.933 707.664 843.4C712.197 840.733 715.797 837 718.464 832.2C721.131 827.267 722.464 821.4 722.464 814.6ZM806.011 775.4C809.611 770.067 814.544 765.733 820.811 762.4C827.211 759.067 834.478 757.4 842.611 757.4C852.078 757.4 860.611 759.733 868.211 764.4C875.944 769.067 882.011 775.733 886.411 784.4C890.944 792.933 893.211 802.867 893.211 814.2C893.211 825.533 890.944 835.6 886.411 844.4C882.011 853.067 875.944 859.8 868.211 864.6C860.611 869.4 852.078 871.8 842.611 871.8C834.344 871.8 827.078 870.2 820.811 867C814.678 863.667 809.744 859.4 806.011 854.2V870H778.011V722H806.011V775.4ZM864.611 814.2C864.611 807.533 863.211 801.8 860.411 797C857.744 792.067 854.144 788.333 849.611 785.8C845.211 783.267 840.411 782 835.211 782C830.144 782 825.344 783.333 820.811 786C816.411 788.533 812.811 792.267 810.011 797.2C807.344 802.133 806.011 807.933 806.011 814.6C806.011 821.267 807.344 827.067 810.011 832C812.811 836.933 816.411 840.733 820.811 843.4C825.344 845.933 830.144 847.2 835.211 847.2C840.411 847.2 845.211 845.867 849.611 843.2C854.144 840.533 857.744 836.733 860.411 831.8C863.211 826.867 864.611 821 864.611 814.2ZM955.958 871.8C946.891 871.8 938.758 870.2 931.558 867C924.358 863.667 918.624 859.2 914.358 853.6C910.224 848 907.958 841.8 907.558 835H935.758C936.291 839.267 938.358 842.8 941.958 845.6C945.691 848.4 950.291 849.8 955.758 849.8C961.091 849.8 965.224 848.733 968.158 846.6C971.224 844.467 972.758 841.733 972.758 838.4C972.758 834.8 970.891 832.133 967.158 830.4C963.558 828.533 957.758 826.533 949.758 824.4C941.491 822.4 934.691 820.333 929.358 818.2C924.158 816.067 919.624 812.8 915.758 808.4C912.024 804 910.158 798.067 910.158 790.6C910.158 784.467 911.891 778.867 915.358 773.8C918.958 768.733 924.024 764.733 930.558 761.8C937.224 758.867 945.024 757.4 953.958 757.4C967.158 757.4 977.691 760.733 985.558 767.4C993.424 773.933 997.758 782.8 998.558 794H971.758C971.358 789.6 969.491 786.133 966.158 783.6C962.958 780.933 958.624 779.6 953.158 779.6C948.091 779.6 944.158 780.533 941.358 782.4C938.691 784.267 937.358 786.867 937.358 790.2C937.358 793.933 939.224 796.8 942.958 798.8C946.691 800.667 952.491 802.6 960.358 804.6C968.358 806.6 974.958 808.667 980.158 810.8C985.358 812.933 989.824 816.267 993.558 820.8C997.424 825.2 999.424 831.067 999.558 838.4C999.558 844.8 997.758 850.533 994.158 855.6C990.691 860.667 985.624 864.667 978.958 867.6C972.424 870.4 964.758 871.8 955.958 871.8Z" fill="white"/>
<path d="M614.8 722H615.8V721H614.8V722ZM614.8 870V871H615.8V870H614.8ZM586.8 870H585.8V871H586.8V870ZM586.8 722V721H585.8V722H586.8ZM613.8 722V870H615.8V722H613.8ZM614.8 869H586.8V871H614.8V869ZM587.8 870V722H585.8V870H587.8ZM586.8 723H614.8V721H586.8V723ZM641.864 784.4L640.978 783.936L640.972 783.947L641.864 784.4ZM660.064 764.4L659.547 763.544L659.541 763.548L660.064 764.4ZM707.464 762.4L706.987 763.279L706.994 763.283L707.464 762.4ZM722.464 775L721.659 775.593L723.464 778.043V775H722.464ZM722.464 759.2V758.2H721.464V759.2H722.464ZM750.664 759.2H751.664V758.2H750.664V759.2ZM750.664 870V871H751.664V870H750.664ZM722.464 870H721.464V871H722.464V870ZM722.464 853.8H723.464V850.599L721.642 853.231L722.464 853.8ZM707.464 866.8L707.934 867.683L707.94 867.679L707.464 866.8ZM660.064 864.6L659.53 865.446L659.537 865.45L660.064 864.6ZM641.864 844.4L640.97 844.847L640.974 844.855L640.978 844.863L641.864 844.4ZM718.464 797.2L717.584 797.676L717.59 797.686L718.464 797.2ZM707.664 786L707.157 786.862L707.167 786.868L707.176 786.873L707.664 786ZM678.664 785.8L678.165 784.933L678.165 784.933L678.664 785.8ZM667.864 797L666.994 796.506L666.99 796.514L667.864 797ZM667.864 831.8L666.979 832.266L666.987 832.28L666.994 832.294L667.864 831.8ZM678.664 843.2L678.146 844.055L678.157 844.062L678.664 843.2ZM707.664 843.4L708.152 844.273L708.162 844.268L708.171 844.262L707.664 843.4ZM718.464 832.2L719.338 832.686L719.344 832.676L718.464 832.2ZM636.264 814.2C636.264 803.133 638.437 793.359 642.756 784.853L640.972 783.947C636.491 792.774 634.264 802.867 634.264 814.2H636.264ZM642.75 784.863C647.208 776.341 653.156 769.815 660.587 765.252L659.541 763.548C651.772 768.318 645.587 775.126 640.978 783.936L642.75 784.863ZM660.581 765.256C668.15 760.688 676.57 758.4 685.864 758.4V756.4C676.224 756.4 667.444 758.778 659.547 763.544L660.581 765.256ZM685.864 758.4C693.995 758.4 701.025 760.038 706.987 763.279L707.942 761.521C701.637 758.095 694.267 756.4 685.864 756.4V758.4ZM706.994 763.283C713.146 766.555 718.025 770.662 721.659 775.593L723.269 774.407C719.436 769.205 714.315 764.912 707.934 761.517L706.994 763.283ZM723.464 775V759.2H721.464V775H723.464ZM722.464 760.2H750.664V758.2H722.464V760.2ZM749.664 759.2V870H751.664V759.2H749.664ZM750.664 869H722.464V871H750.664V869ZM723.464 870V853.8H721.464V870H723.464ZM721.642 853.231C718.144 858.283 713.271 862.517 706.988 865.921L707.94 867.679C714.458 864.149 719.584 859.717 723.286 854.369L721.642 853.231ZM706.994 865.917C700.895 869.162 693.794 870.8 685.664 870.8V872.8C694.067 872.8 701.5 871.105 707.934 867.683L706.994 865.917ZM685.664 870.8C676.512 870.8 668.162 868.449 660.591 863.75L659.537 865.45C667.433 870.351 676.149 872.8 685.664 872.8V870.8ZM660.598 863.755C653.16 859.057 647.209 852.461 642.75 843.937L640.978 844.863C645.586 853.672 651.768 860.543 659.53 865.445L660.598 863.755ZM642.758 843.953C638.438 835.311 636.264 825.402 636.264 814.2H634.264C634.264 825.665 636.49 835.889 640.97 844.847L642.758 843.953ZM723.464 814.6C723.464 807.67 722.105 801.694 719.338 796.714L717.59 797.686C720.157 802.306 721.464 807.93 721.464 814.6H723.464ZM719.344 796.724C716.594 791.638 712.864 787.76 708.152 785.127L707.176 786.873C711.531 789.306 715 792.895 717.584 797.676L719.344 796.724ZM708.171 785.138C703.486 782.382 698.444 781 693.064 781V783C698.084 783 702.776 784.285 707.157 786.862L708.171 785.138ZM693.064 781C687.693 781 682.721 782.31 678.165 784.933L679.163 786.667C683.407 784.223 688.035 783 693.064 783V781ZM678.165 784.933C673.593 787.566 669.872 791.437 666.994 796.506L668.734 797.494C671.456 792.697 674.935 789.101 679.163 786.667L678.165 784.933ZM666.99 796.514C664.225 801.492 662.864 807.4 662.864 814.2H664.864C664.864 807.667 666.17 802.108 668.738 797.486L666.99 796.514ZM662.864 814.2C662.864 821.002 664.225 827.034 666.979 832.266L668.749 831.334C666.169 826.433 664.864 820.731 664.864 814.2H662.864ZM666.994 832.294C669.87 837.36 673.585 841.291 678.146 844.055L679.182 842.345C674.943 839.776 671.458 836.107 668.734 831.306L666.994 832.294ZM678.157 844.062C682.838 846.815 687.812 848.2 693.064 848.2V846.2C688.183 846.2 683.557 844.918 679.171 842.338L678.157 844.062ZM693.064 848.2C698.435 848.2 703.469 846.89 708.152 844.273L707.176 842.527C702.792 844.977 698.094 846.2 693.064 846.2V848.2ZM708.171 844.262C712.865 841.501 716.589 837.634 719.338 832.686L717.59 831.714C715.006 836.366 711.53 839.966 707.157 842.538L708.171 844.262ZM719.344 832.676C722.105 827.568 723.464 821.531 723.464 814.6H721.464C721.464 821.269 720.157 826.965 717.584 831.724L719.344 832.676ZM806.011 775.4H805.011V778.669L806.84 775.959L806.011 775.4ZM820.811 762.4L820.349 761.513L820.341 761.517L820.811 762.4ZM868.211 764.4L867.688 765.252L867.694 765.256L868.211 764.4ZM886.411 784.4L885.519 784.853L885.523 784.861L885.528 784.869L886.411 784.4ZM886.411 844.4L885.522 843.942L885.519 843.947L886.411 844.4ZM868.211 864.6L867.684 863.75L867.677 863.755L868.211 864.6ZM820.811 867L820.333 867.879L820.345 867.885L820.356 867.891L820.811 867ZM806.011 854.2L806.823 853.617L805.011 851.092V854.2H806.011ZM806.011 870V871H807.011V870H806.011ZM778.011 870H777.011V871H778.011V870ZM778.011 722V721H777.011V722H778.011ZM806.011 722H807.011V721H806.011V722ZM860.411 797L859.531 797.476L859.539 797.49L859.547 797.504L860.411 797ZM849.611 785.8L849.112 786.667L849.123 786.673L849.611 785.8ZM820.811 786L821.31 786.867L821.318 786.862L820.811 786ZM810.011 797.2L809.141 796.706L809.136 796.715L809.131 796.724L810.011 797.2ZM810.011 832L809.131 832.476L809.136 832.485L809.141 832.494L810.011 832ZM820.811 843.4L820.293 844.255L820.308 844.264L820.323 844.273L820.811 843.4ZM849.611 843.2L849.104 842.338L849.093 842.345L849.611 843.2ZM860.411 831.8L859.541 831.306L859.536 831.315L859.531 831.324L860.411 831.8ZM806.84 775.959C810.339 770.775 815.143 766.547 821.281 763.283L820.341 761.517C813.945 764.919 808.883 769.358 805.182 774.841L806.84 775.959ZM821.273 763.287C827.513 760.037 834.618 758.4 842.611 758.4V756.4C834.337 756.4 826.909 758.096 820.349 761.513L821.273 763.287ZM842.611 758.4C851.905 758.4 860.255 760.688 867.688 765.252L868.734 763.548C860.967 758.778 852.25 756.4 842.611 756.4V758.4ZM867.694 765.256C875.255 769.819 881.197 776.34 885.519 784.853L887.303 783.947C882.825 775.127 876.633 768.315 868.728 763.544L867.694 765.256ZM885.528 784.869C889.972 793.235 892.211 803.002 892.211 814.2H894.211C894.211 802.731 891.916 792.632 887.294 783.931L885.528 784.869ZM892.211 814.2C892.211 825.397 889.972 835.303 885.522 843.942L887.3 844.858C891.916 835.897 894.211 825.669 894.211 814.2H892.211ZM885.519 843.947C881.196 852.462 875.251 859.053 867.684 863.75L868.738 865.45C876.638 860.547 882.826 853.671 887.303 844.853L885.519 843.947ZM867.677 863.755C860.245 868.448 851.899 870.8 842.611 870.8V872.8C852.256 872.8 860.976 870.352 868.745 865.445L867.677 863.755ZM842.611 870.8C834.475 870.8 827.369 869.226 821.266 866.109L820.356 867.891C826.786 871.174 834.214 872.8 842.611 872.8V870.8ZM821.288 866.121C815.275 862.853 810.461 858.684 806.823 853.617L805.199 854.783C809.028 860.116 814.08 864.48 820.333 867.879L821.288 866.121ZM805.011 854.2V870H807.011V854.2H805.011ZM806.011 869H778.011V871H806.011V869ZM779.011 870V722H777.011V870H779.011ZM778.011 723H806.011V721H778.011V723ZM805.011 722V775.4H807.011V722H805.011ZM865.611 814.2C865.611 807.392 864.18 801.477 861.275 796.496L859.547 797.504C862.242 802.123 863.611 807.675 863.611 814.2H865.611ZM861.291 796.524C858.541 791.438 854.811 787.56 850.099 784.927L849.123 786.673C853.477 789.106 856.947 792.695 859.531 797.476L861.291 796.524ZM850.11 784.933C845.554 782.31 840.582 781 835.211 781V783C840.24 783 844.868 784.223 849.112 786.667L850.11 784.933ZM835.211 781C829.959 781 824.985 782.385 820.304 785.138L821.318 786.862C825.704 784.282 830.33 783 835.211 783V781ZM820.312 785.133C815.74 787.766 812.019 791.637 809.141 796.706L810.881 797.694C813.603 792.897 817.082 789.301 821.31 786.867L820.312 785.133ZM809.131 796.724C806.372 801.829 805.011 807.799 805.011 814.6H807.011C807.011 808.068 808.317 802.438 810.891 797.676L809.131 796.724ZM805.011 814.6C805.011 821.401 806.372 827.371 809.131 832.476L810.891 831.524C808.317 826.762 807.011 821.132 807.011 814.6H805.011ZM809.141 832.494C812.017 837.56 815.732 841.491 820.293 844.255L821.329 842.545C817.09 839.976 813.605 836.307 810.881 831.506L809.141 832.494ZM820.323 844.273C825.002 846.887 829.969 848.2 835.211 848.2V846.2C830.319 846.2 825.687 844.979 821.299 842.527L820.323 844.273ZM835.211 848.2C840.592 848.2 845.571 846.818 850.129 844.055L849.093 842.345C844.851 844.916 840.23 846.2 835.211 846.2V848.2ZM850.118 844.062C854.819 841.297 858.543 837.358 861.291 832.276L859.531 831.324C856.945 836.108 853.47 839.77 849.104 842.338L850.118 844.062ZM861.281 832.294C864.182 827.182 865.611 821.139 865.611 814.2H863.611C863.611 820.861 862.24 826.551 859.541 831.306L861.281 832.294ZM931.558 867L931.138 867.907L931.145 867.911L931.152 867.914L931.558 867ZM914.358 853.6L913.553 854.194L913.558 854.2L913.562 854.206L914.358 853.6ZM907.558 835V834H906.497L906.56 835.059L907.558 835ZM935.758 835L936.75 834.876L936.641 834H935.758V835ZM941.958 845.6L941.344 846.389L941.351 846.395L941.358 846.4L941.958 845.6ZM968.158 846.6L967.587 845.779L967.578 845.785L967.57 845.791L968.158 846.6ZM967.158 830.4L966.697 831.288L966.717 831.298L966.737 831.307L967.158 830.4ZM949.758 824.4L950.015 823.434L950.004 823.431L949.993 823.428L949.758 824.4ZM929.358 818.2L928.978 819.125L928.986 819.128L929.358 818.2ZM915.758 808.4L914.995 809.047L915.001 809.054L915.007 809.06L915.758 808.4ZM915.358 773.8L914.543 773.221L914.538 773.228L914.533 773.235L915.358 773.8ZM930.558 761.8L930.155 760.885L930.148 760.888L930.558 761.8ZM985.558 767.4L984.911 768.163L984.919 768.169L985.558 767.4ZM998.558 794V795H999.632L999.555 793.929L998.558 794ZM971.758 794L970.762 794.091L970.845 795H971.758V794ZM966.158 783.6L965.518 784.368L965.535 784.383L965.553 784.396L966.158 783.6ZM941.358 782.4L940.803 781.568L940.794 781.574L940.784 781.581L941.358 782.4ZM942.958 798.8L942.486 799.681L942.498 799.688L942.511 799.694L942.958 798.8ZM960.358 804.6L960.111 805.569L960.115 805.57L960.358 804.6ZM993.558 820.8L992.786 821.436L992.796 821.448L992.807 821.46L993.558 820.8ZM999.558 838.4H1000.56V838.391L1000.56 838.382L999.558 838.4ZM994.158 855.6L993.343 855.021L993.338 855.028L993.333 855.035L994.158 855.6ZM978.958 867.6L979.352 868.519L979.361 868.515L978.958 867.6ZM955.958 870.8C947.01 870.8 939.018 869.221 931.964 866.086L931.152 867.914C938.497 871.179 946.772 872.8 955.958 872.8V870.8ZM931.978 866.093C924.907 862.819 919.309 858.449 915.153 852.994L913.562 854.206C917.94 859.951 923.809 864.515 931.138 867.907L931.978 866.093ZM915.162 853.006C911.141 847.558 908.944 841.543 908.556 834.941L906.56 835.059C906.971 842.057 909.308 848.442 913.553 854.194L915.162 853.006ZM907.558 836H935.758V834H907.558V836ZM934.766 835.124C935.334 839.671 937.549 843.437 941.344 846.389L942.572 844.811C939.167 842.163 937.248 838.862 936.75 834.876L934.766 835.124ZM941.358 846.4C945.293 849.351 950.113 850.8 955.758 850.8V848.8C950.469 848.8 946.09 847.449 942.558 844.8L941.358 846.4ZM955.758 850.8C961.208 850.8 965.578 849.712 968.746 847.409L967.57 845.791C964.871 847.754 960.975 848.8 955.758 848.8V850.8ZM968.729 847.421C972.027 845.127 973.758 842.104 973.758 838.4H971.758C971.758 841.363 970.422 843.806 967.587 845.779L968.729 847.421ZM973.758 838.4C973.758 836.418 973.24 834.646 972.177 833.127C971.119 831.615 969.564 830.415 967.579 829.493L966.737 831.307C968.485 832.119 969.73 833.118 970.539 834.273C971.342 835.421 971.758 836.782 971.758 838.4H973.758ZM967.618 829.512C963.917 827.593 958.029 825.571 950.015 823.434L949.5 825.366C957.487 827.496 963.199 829.474 966.697 831.288L967.618 829.512ZM949.993 823.428C941.753 821.434 935.003 819.381 929.729 817.272L928.986 819.128C934.38 821.286 941.229 823.366 949.523 825.372L949.993 823.428ZM929.737 817.275C924.686 815.203 920.278 812.029 916.509 807.74L915.007 809.06C918.971 813.571 923.63 816.931 928.978 819.125L929.737 817.275ZM916.52 807.753C912.981 803.581 911.158 797.901 911.158 790.6H909.158C909.158 798.233 911.068 804.419 914.995 809.047L916.52 807.753ZM911.158 790.6C911.158 784.668 912.83 779.265 916.183 774.365L914.533 773.235C910.952 778.468 909.158 784.265 909.158 790.6H911.158ZM916.173 774.379C919.655 769.479 924.571 765.584 930.967 762.712L930.148 760.888C923.478 763.883 918.261 767.988 914.543 773.221L916.173 774.379ZM930.961 762.715C937.475 759.849 945.133 758.4 953.958 758.4V756.4C944.916 756.4 936.974 757.884 930.155 760.885L930.961 762.715ZM953.958 758.4C966.989 758.4 977.271 761.688 984.911 768.163L986.204 766.637C978.111 759.779 967.327 756.4 953.958 756.4V758.4ZM984.919 768.169C992.554 774.51 996.778 783.114 997.56 794.071L999.555 793.929C998.738 782.486 994.295 773.356 986.197 766.631L984.919 768.169ZM998.558 793H971.758V795H998.558V793ZM972.754 793.909C972.33 789.247 970.333 785.517 966.763 782.804L965.553 784.396C968.649 786.749 970.386 789.953 970.762 794.091L972.754 793.909ZM966.798 782.832C963.369 779.974 958.784 778.6 953.158 778.6V780.6C958.464 780.6 962.547 781.893 965.518 784.368L966.798 782.832ZM953.158 778.6C947.987 778.6 943.831 779.549 940.803 781.568L941.913 783.232C944.485 781.517 948.195 780.6 953.158 780.6V778.6ZM940.784 781.581C937.843 783.64 936.358 786.55 936.358 790.2H938.358C938.358 787.184 939.54 784.893 941.931 783.219L940.784 781.581ZM936.358 790.2C936.358 792.242 936.871 794.085 937.92 795.696C938.964 797.3 940.506 798.621 942.486 799.681L943.43 797.919C941.677 796.979 940.418 795.867 939.596 794.604C938.778 793.348 938.358 791.891 938.358 790.2H936.358ZM942.511 799.694C946.343 801.611 952.227 803.565 960.111 805.569L960.604 803.631C952.755 801.635 947.039 799.723 943.405 797.906L942.511 799.694ZM960.115 805.57C968.088 807.563 974.638 809.616 979.778 811.725L980.537 809.875C975.278 807.717 968.628 805.637 960.6 803.63L960.115 805.57ZM979.778 811.725C984.819 813.793 989.153 817.024 992.786 821.436L994.33 820.164C990.496 815.509 985.897 812.074 980.537 809.875L979.778 811.725ZM992.807 821.46C996.481 825.641 998.428 831.26 998.558 838.418L1000.56 838.382C1000.42 830.873 998.368 824.759 994.309 820.14L992.807 821.46ZM998.558 838.4C998.558 844.599 996.819 850.129 993.343 855.021L994.973 856.179C998.697 850.938 1000.56 845.001 1000.56 838.4H998.558ZM993.333 855.035C989.989 859.921 985.083 863.812 978.555 866.685L979.361 868.515C986.166 865.521 991.393 861.412 994.983 856.165L993.333 855.035ZM978.564 866.681C972.181 869.416 964.654 870.8 955.958 870.8V872.8C964.862 872.8 972.668 871.384 979.352 868.519L978.564 866.681Z" fill="black" mask="url(#path-1-outside-1_18_24)"/>
<mask id="path-3-outside-2_18_24" maskUnits="userSpaceOnUse" x="17" y="184" width="711" height="528" fill="black">
<rect fill="white" x="17" y="184" width="711" height="528"/>
<path d="M145.898 710.688C104.688 710.688 73.1445 698.285 51.2695 673.48C29.5898 648.48 18.75 612.445 18.75 565.375V320.453C18.75 276.312 29.4922 242.816 50.9766 219.965C72.6562 197.113 104.297 185.688 145.898 185.688C187.5 185.688 219.043 197.113 240.527 219.965C262.207 242.816 273.047 276.312 273.047 320.453V565.375C273.047 612.445 262.109 648.48 240.234 673.48C218.555 698.285 187.109 710.688 145.898 710.688ZM146.777 615.766C162.402 615.766 170.215 600.629 170.215 570.355V318.695C170.215 293.305 162.598 280.609 147.363 280.609C130.176 280.609 121.582 293.598 121.582 319.574V570.941C121.582 586.957 123.535 598.48 127.441 605.512C131.348 612.348 137.793 615.766 146.777 615.766ZM312.891 706V266.547H415.43V317.523C420.117 299.555 428.125 285.785 439.453 276.215C450.781 266.645 467.383 261.859 489.258 261.859C506.836 261.859 521.777 265.961 534.082 274.164C546.582 282.172 555.371 292.816 560.449 306.098C568.457 291.645 577.832 280.707 588.574 273.285C599.512 265.668 615.039 261.859 635.156 261.859C659.57 261.859 678.32 267.133 691.406 277.68C704.688 288.031 713.867 302.484 718.945 321.039C724.219 339.398 726.855 360.688 726.855 384.906V706H622.266V383.148C622.266 354.828 615.039 340.668 600.586 340.668C592.969 340.668 587.109 343.305 583.008 348.578C578.906 353.656 576.074 360.004 574.512 367.621C572.949 375.238 572.168 382.855 572.168 390.473V706H467.578V383.148C467.578 373.969 466.406 364.789 464.062 355.609C461.914 346.43 456.25 341.84 447.07 341.84C439.258 341.84 433.203 344.672 428.906 350.336C424.609 356 421.68 363.031 420.117 371.43C418.555 379.633 417.773 387.738 417.773 395.746V706H312.891Z"/>
</mask>
<path d="M145.898 710.688C104.688 710.688 73.1445 698.285 51.2695 673.48C29.5898 648.48 18.75 612.445 18.75 565.375V320.453C18.75 276.312 29.4922 242.816 50.9766 219.965C72.6562 197.113 104.297 185.688 145.898 185.688C187.5 185.688 219.043 197.113 240.527 219.965C262.207 242.816 273.047 276.312 273.047 320.453V565.375C273.047 612.445 262.109 648.48 240.234 673.48C218.555 698.285 187.109 710.688 145.898 710.688ZM146.777 615.766C162.402 615.766 170.215 600.629 170.215 570.355V318.695C170.215 293.305 162.598 280.609 147.363 280.609C130.176 280.609 121.582 293.598 121.582 319.574V570.941C121.582 586.957 123.535 598.48 127.441 605.512C131.348 612.348 137.793 615.766 146.777 615.766ZM312.891 706V266.547H415.43V317.523C420.117 299.555 428.125 285.785 439.453 276.215C450.781 266.645 467.383 261.859 489.258 261.859C506.836 261.859 521.777 265.961 534.082 274.164C546.582 282.172 555.371 292.816 560.449 306.098C568.457 291.645 577.832 280.707 588.574 273.285C599.512 265.668 615.039 261.859 635.156 261.859C659.57 261.859 678.32 267.133 691.406 277.68C704.688 288.031 713.867 302.484 718.945 321.039C724.219 339.398 726.855 360.688 726.855 384.906V706H622.266V383.148C622.266 354.828 615.039 340.668 600.586 340.668C592.969 340.668 587.109 343.305 583.008 348.578C578.906 353.656 576.074 360.004 574.512 367.621C572.949 375.238 572.168 382.855 572.168 390.473V706H467.578V383.148C467.578 373.969 466.406 364.789 464.062 355.609C461.914 346.43 456.25 341.84 447.07 341.84C439.258 341.84 433.203 344.672 428.906 350.336C424.609 356 421.68 363.031 420.117 371.43C418.555 379.633 417.773 387.738 417.773 395.746V706H312.891Z" fill="white"/>
<path d="M51.2695 673.48L50.514 674.136L50.5195 674.142L51.2695 673.48ZM50.9766 219.965L50.2511 219.277L50.248 219.28L50.9766 219.965ZM240.527 219.965L239.799 220.65L239.802 220.653L240.527 219.965ZM240.234 673.48L239.482 672.822L239.481 672.822L240.234 673.48ZM127.441 605.512L126.567 605.997L126.573 606.008L127.441 605.512ZM145.898 709.688C104.898 709.688 73.6595 697.357 52.0195 672.819L50.5195 674.142C72.6295 699.213 104.477 711.688 145.898 711.688V709.688ZM52.025 672.825C30.5583 648.071 19.75 612.305 19.75 565.375H17.75C17.75 612.586 28.6214 648.89 50.514 674.136L52.025 672.825ZM19.75 565.375V320.453H17.75V565.375H19.75ZM19.75 320.453C19.75 276.463 30.4553 243.252 51.7051 220.65L50.248 219.28C28.5291 242.381 17.75 276.162 17.75 320.453H19.75ZM51.702 220.653C73.1378 198.059 104.479 186.688 145.898 186.688V184.688C104.114 184.688 72.1747 196.168 50.2511 219.277L51.702 220.653ZM145.898 186.688C187.318 186.688 218.559 198.059 239.799 220.65L241.256 219.28C219.527 196.168 187.682 184.688 145.898 184.688V186.688ZM239.802 220.653C261.245 243.255 272.047 276.465 272.047 320.453H274.047C274.047 276.16 263.169 242.377 241.253 219.277L239.802 220.653ZM272.047 320.453V565.375H274.047V320.453H272.047ZM272.047 565.375C272.047 612.303 261.142 648.068 239.482 672.822L240.987 674.139C263.077 648.893 274.047 612.587 274.047 565.375H272.047ZM239.481 672.822C218.038 697.357 186.899 709.688 145.898 709.688V711.688C187.32 711.688 219.072 699.213 240.987 674.139L239.481 672.822ZM146.777 616.766C150.852 616.766 154.463 615.776 157.574 613.768C160.679 611.762 163.228 608.777 165.244 604.872C169.26 597.09 171.215 585.546 171.215 570.355H169.215C169.215 585.439 167.263 596.599 163.467 603.954C161.576 607.618 159.243 610.309 156.489 612.087C153.74 613.863 150.515 614.766 146.777 614.766V616.766ZM171.215 570.355V318.695H169.215V570.355H171.215ZM171.215 318.695C171.215 305.933 169.306 296.194 165.359 289.616C161.364 282.957 155.319 279.609 147.363 279.609V281.609C154.642 281.609 160.023 284.609 163.644 290.645C167.315 296.763 169.215 306.067 169.215 318.695H171.215ZM147.363 279.609C138.475 279.609 131.697 282.992 127.193 289.799C122.738 296.533 120.582 306.507 120.582 319.574H122.582C122.582 306.665 124.723 297.157 128.861 290.902C132.951 284.721 139.064 281.609 147.363 281.609V279.609ZM120.582 319.574V570.941H122.582V319.574H120.582ZM120.582 570.941C120.582 586.99 122.531 598.732 126.567 605.997L128.316 605.026C124.54 598.229 122.582 586.924 122.582 570.941H120.582ZM126.573 606.008C130.686 613.205 137.495 616.766 146.777 616.766V614.766C138.091 614.766 132.01 611.49 128.31 605.016L126.573 606.008ZM312.891 706H311.891V707H312.891V706ZM312.891 266.547V265.547H311.891V266.547H312.891ZM415.43 266.547H416.43V265.547H415.43V266.547ZM415.43 317.523H414.43L416.397 317.776L415.43 317.523ZM534.082 274.164L533.527 274.996L533.535 275.001L533.543 275.006L534.082 274.164ZM560.449 306.098L559.515 306.455L560.283 308.462L561.324 306.582L560.449 306.098ZM588.574 273.285L589.143 274.108L589.146 274.106L588.574 273.285ZM691.406 277.68L690.779 278.458L690.785 278.463L690.792 278.468L691.406 277.68ZM718.945 321.039L717.981 321.303L717.984 321.315L718.945 321.039ZM726.855 706V707H727.855V706H726.855ZM622.266 706H621.266V707H622.266V706ZM583.008 348.578L583.786 349.206L583.792 349.199L583.797 349.192L583.008 348.578ZM572.168 706V707H573.168V706H572.168ZM467.578 706H466.578V707H467.578V706ZM464.062 355.609L463.089 355.837L463.091 355.847L463.094 355.857L464.062 355.609ZM420.117 371.43L421.1 371.617L421.1 371.613L420.117 371.43ZM417.773 706V707H418.773V706H417.773ZM313.891 706V266.547H311.891V706H313.891ZM312.891 267.547H415.43V265.547H312.891V267.547ZM414.43 266.547V317.523H416.43V266.547H414.43ZM416.397 317.776C421.046 299.956 428.964 286.386 440.098 276.979L438.808 275.451C427.286 285.185 419.188 299.153 414.462 317.271L416.397 317.776ZM440.098 276.979C451.177 267.619 467.51 262.859 489.258 262.859V260.859C467.256 260.859 450.385 265.67 438.808 275.451L440.098 276.979ZM489.258 262.859C506.676 262.859 521.416 266.922 533.527 274.996L534.637 273.332C522.139 265 506.995 260.859 489.258 260.859V262.859ZM533.543 275.006C545.871 282.904 554.517 293.382 559.515 306.455L561.383 305.741C556.225 292.25 547.293 281.44 534.621 273.322L533.543 275.006ZM561.324 306.582C569.276 292.229 578.556 281.422 589.143 274.108L588.006 272.462C577.108 279.992 567.638 291.06 559.575 305.613L561.324 306.582ZM589.146 274.106C599.85 266.651 615.146 262.859 635.156 262.859V260.859C614.933 260.859 599.173 264.685 588.003 272.465L589.146 274.106ZM635.156 262.859C659.442 262.859 677.935 268.107 690.779 278.458L692.034 276.901C678.705 266.159 659.698 260.859 635.156 260.859V262.859ZM690.792 278.468C703.879 288.669 712.951 302.925 717.981 321.303L719.91 320.775C714.783 302.043 705.496 287.394 692.021 276.891L690.792 278.468ZM717.984 321.315C723.226 339.565 725.855 360.757 725.855 384.906H727.855C727.855 360.618 725.211 339.232 719.906 320.763L717.984 321.315ZM725.855 384.906V706H727.855V384.906H725.855ZM726.855 705H622.266V707H726.855V705ZM623.266 706V383.148H621.266V706H623.266ZM623.266 383.148C623.266 368.936 621.458 358.125 617.736 350.834C615.868 347.173 613.503 344.371 610.618 342.486C607.727 340.597 604.37 339.668 600.586 339.668V341.668C604.028 341.668 606.995 342.509 609.524 344.16C612.058 345.815 614.21 348.323 615.955 351.743C619.46 358.611 621.266 369.041 621.266 383.148H623.266ZM600.586 339.668C592.709 339.668 586.538 342.411 582.218 347.964L583.797 349.192C587.681 344.198 593.228 341.668 600.586 341.668V339.668ZM582.23 347.95C578.01 353.174 575.121 359.676 573.532 367.42L575.491 367.822C577.028 360.332 579.802 354.139 583.786 349.206L582.23 347.95ZM573.532 367.42C571.956 375.102 571.168 382.787 571.168 390.473H573.168C573.168 382.924 573.942 375.374 575.491 367.822L573.532 367.42ZM571.168 390.473V706H573.168V390.473H571.168ZM572.168 705H467.578V707H572.168V705ZM468.578 706V383.148H466.578V706H468.578ZM468.578 383.148C468.578 373.883 467.395 364.62 465.031 355.362L463.094 355.857C465.417 364.958 466.578 374.055 466.578 383.148H468.578ZM465.036 355.381C463.926 350.639 461.882 346.976 458.833 344.505C455.781 342.032 451.829 340.84 447.07 340.84V342.84C451.492 342.84 454.962 343.943 457.574 346.059C460.188 348.178 462.05 351.4 463.089 355.837L465.036 355.381ZM447.07 340.84C438.981 340.84 432.616 343.791 428.11 349.732L429.703 350.94C433.79 345.553 439.535 342.84 447.07 342.84V340.84ZM428.11 349.732C423.701 355.542 420.719 362.726 419.134 371.247L421.1 371.613C422.64 363.337 425.517 356.458 429.703 350.94L428.11 349.732ZM419.135 371.243C417.561 379.505 416.773 387.673 416.773 395.746H418.773C418.773 387.804 419.548 379.761 421.1 371.617L419.135 371.243ZM416.773 395.746V706H418.773V395.746H416.773ZM417.773 705H312.891V707H417.773V705Z" fill="#858585" mask="url(#path-3-outside-2_18_24)"/>
<mask id="path-5-outside-3_18_24" maskUnits="userSpaceOnUse" x="715" y="189" width="813" height="523" fill="black">
<rect fill="white" x="715" y="189" width="813" height="523"/>
<path d="M778.09 706V289.398H716.859V190.375H942.445V289.398H881.215V706H778.09ZM1054.07 710.688C1030.63 710.688 1012.66 705.805 1000.16 696.039C987.855 686.273 979.457 672.699 974.965 655.316C970.473 637.738 968.227 617.23 968.227 593.793V266.547H1073.7V581.488C1073.7 599.066 1075.06 611.371 1077.8 618.402C1080.53 625.238 1086.98 628.656 1097.13 628.656C1108.07 628.656 1114.91 623.773 1117.64 614.008C1120.57 604.242 1122.04 591.645 1122.04 576.215V266.547H1226.62V706H1121.74V659.125C1115.1 675.922 1107.09 688.715 1097.72 697.504C1088.54 706.293 1073.99 710.688 1054.07 710.688ZM1268.81 706V266.547H1373.7V322.504C1377.6 305.707 1384.83 291.449 1395.38 279.73C1406.12 267.816 1420.96 261.859 1439.91 261.859C1470.38 261.859 1492.45 271.234 1506.12 289.984C1519.98 308.734 1526.92 334.418 1526.92 367.035V706H1423.5V377.875C1423.5 369.281 1421.74 361.371 1418.23 354.145C1414.71 346.723 1408.66 343.012 1400.06 343.012C1392.05 343.012 1386.1 345.844 1382.19 351.508C1378.48 356.977 1376.14 363.91 1375.16 372.309C1374.18 380.512 1373.7 388.715 1373.7 396.918V706H1268.81Z"/>
</mask>
<path d="M778.09 706V289.398H716.859V190.375H942.445V289.398H881.215V706H778.09ZM1054.07 710.688C1030.63 710.688 1012.66 705.805 1000.16 696.039C987.855 686.273 979.457 672.699 974.965 655.316C970.473 637.738 968.227 617.23 968.227 593.793V266.547H1073.7V581.488C1073.7 599.066 1075.06 611.371 1077.8 618.402C1080.53 625.238 1086.98 628.656 1097.13 628.656C1108.07 628.656 1114.91 623.773 1117.64 614.008C1120.57 604.242 1122.04 591.645 1122.04 576.215V266.547H1226.62V706H1121.74V659.125C1115.1 675.922 1107.09 688.715 1097.72 697.504C1088.54 706.293 1073.99 710.688 1054.07 710.688ZM1268.81 706V266.547H1373.7V322.504C1377.6 305.707 1384.83 291.449 1395.38 279.73C1406.12 267.816 1420.96 261.859 1439.91 261.859C1470.38 261.859 1492.45 271.234 1506.12 289.984C1519.98 308.734 1526.92 334.418 1526.92 367.035V706H1423.5V377.875C1423.5 369.281 1421.74 361.371 1418.23 354.145C1414.71 346.723 1408.66 343.012 1400.06 343.012C1392.05 343.012 1386.1 345.844 1382.19 351.508C1378.48 356.977 1376.14 363.91 1375.16 372.309C1374.18 380.512 1373.7 388.715 1373.7 396.918V706H1268.81Z" fill="white"/>
<path d="M778.09 706H777.09V707H778.09V706ZM778.09 289.398H779.09V288.398H778.09V289.398ZM716.859 289.398H715.859V290.398H716.859V289.398ZM716.859 190.375V189.375H715.859V190.375H716.859ZM942.445 190.375H943.445V189.375H942.445V190.375ZM942.445 289.398V290.398H943.445V289.398H942.445ZM881.215 289.398V288.398H880.215V289.398H881.215ZM881.215 706V707H882.215V706H881.215ZM779.09 706V289.398H777.09V706H779.09ZM778.09 288.398H716.859V290.398H778.09V288.398ZM717.859 289.398V190.375H715.859V289.398H717.859ZM716.859 191.375H942.445V189.375H716.859V191.375ZM941.445 190.375V289.398H943.445V190.375H941.445ZM942.445 288.398H881.215V290.398H942.445V288.398ZM880.215 289.398V706H882.215V289.398H880.215ZM881.215 705H778.09V707H881.215V705ZM1000.16 696.039L999.538 696.822L999.545 696.827L1000.16 696.039ZM974.965 655.316L973.996 655.564L973.997 655.567L974.965 655.316ZM968.227 266.547V265.547H967.227V266.547H968.227ZM1073.7 266.547H1074.7V265.547H1073.7V266.547ZM1077.8 618.402L1076.86 618.765L1076.87 618.774L1077.8 618.402ZM1117.64 614.008L1116.68 613.72L1116.68 613.729L1116.68 613.738L1117.64 614.008ZM1122.04 266.547V265.547H1121.04V266.547H1122.04ZM1226.62 266.547H1227.62V265.547H1226.62V266.547ZM1226.62 706V707H1227.62V706H1226.62ZM1121.74 706H1120.74V707H1121.74V706ZM1121.74 659.125H1122.74L1120.81 658.757L1121.74 659.125ZM1097.72 697.504L1097.03 696.774L1097.03 696.782L1097.72 697.504ZM1054.07 709.688C1030.75 709.688 1013.03 704.827 1000.78 695.251L999.545 696.827C1012.29 706.782 1030.51 711.688 1054.07 711.688V709.688ZM1000.78 695.256C988.671 685.644 980.379 672.27 975.933 655.066L973.997 655.567C978.535 673.129 987.04 686.903 999.538 696.822L1000.78 695.256ZM975.934 655.069C971.467 637.591 969.227 617.17 969.227 593.793H967.227C967.227 617.291 969.478 637.885 973.996 655.564L975.934 655.069ZM969.227 593.793V266.547H967.227V593.793H969.227ZM968.227 267.547H1073.7V265.547H968.227V267.547ZM1072.7 266.547V581.488H1074.7V266.547H1072.7ZM1072.7 581.488C1072.7 599.069 1074.06 611.542 1076.86 618.765L1078.73 618.04C1076.07 611.2 1074.7 599.064 1074.7 581.488H1072.7ZM1076.87 618.774C1078.32 622.409 1080.78 625.155 1084.21 626.976C1087.63 628.786 1091.95 629.656 1097.13 629.656V627.656C1092.16 627.656 1088.18 626.818 1085.15 625.209C1082.14 623.612 1080.01 621.231 1078.73 618.031L1076.87 618.774ZM1097.13 629.656C1102.75 629.656 1107.41 628.402 1111.04 625.808C1114.68 623.208 1117.19 619.333 1118.6 614.277L1116.68 613.738C1115.36 618.449 1113.08 621.897 1109.88 624.18C1106.68 626.469 1102.46 627.656 1097.13 627.656V629.656ZM1118.6 614.295C1121.57 604.402 1123.04 591.697 1123.04 576.215H1121.04C1121.04 591.592 1119.57 604.083 1116.68 613.72L1118.6 614.295ZM1123.04 576.215V266.547H1121.04V576.215H1123.04ZM1122.04 267.547H1226.62V265.547H1122.04V267.547ZM1225.62 266.547V706H1227.62V266.547H1225.62ZM1226.62 705H1121.74V707H1226.62V705ZM1122.74 706V659.125H1120.74V706H1122.74ZM1120.81 658.757C1114.21 675.469 1106.27 688.119 1097.03 696.774L1098.4 698.233C1107.92 689.311 1116 676.375 1122.67 659.493L1120.81 658.757ZM1097.03 696.782C1088.12 705.314 1073.87 709.688 1054.07 709.688V711.688C1074.1 711.688 1088.96 707.272 1098.41 698.226L1097.03 696.782ZM1268.81 706H1267.81V707H1268.81V706ZM1268.81 266.547V265.547H1267.81V266.547H1268.81ZM1373.7 266.547H1374.7V265.547H1373.7V266.547ZM1373.7 322.504H1372.7L1374.67 322.73L1373.7 322.504ZM1395.38 279.73L1394.63 279.061L1394.63 279.062L1395.38 279.73ZM1506.12 289.984L1505.31 290.574L1505.31 290.579L1506.12 289.984ZM1526.92 706V707H1527.92V706H1526.92ZM1423.5 706H1422.5V707H1423.5V706ZM1418.23 354.145L1417.32 354.573L1417.33 354.582L1418.23 354.145ZM1382.19 351.508L1381.37 350.94L1381.36 350.946L1382.19 351.508ZM1375.16 372.309L1376.15 372.427L1376.15 372.424L1375.16 372.309ZM1373.7 706V707H1374.7V706H1373.7ZM1269.81 706V266.547H1267.81V706H1269.81ZM1268.81 267.547H1373.7V265.547H1268.81V267.547ZM1372.7 266.547V322.504H1374.7V266.547H1372.7ZM1374.67 322.73C1378.54 306.082 1385.69 291.981 1396.12 280.399L1394.63 279.062C1383.96 290.917 1376.66 305.332 1372.72 322.277L1374.67 322.73ZM1396.12 280.4C1406.64 268.735 1421.19 262.859 1439.91 262.859V260.859C1420.73 260.859 1405.6 266.898 1394.63 279.061L1396.12 280.4ZM1439.91 262.859C1470.17 262.859 1491.88 272.159 1505.31 290.574L1506.93 289.395C1493.01 270.31 1470.58 260.859 1439.91 260.859V262.859ZM1505.31 290.579C1519.01 309.1 1525.92 334.549 1525.92 367.035H1527.92C1527.92 334.287 1520.96 308.368 1506.92 289.39L1505.31 290.579ZM1525.92 367.035V706H1527.92V367.035H1525.92ZM1526.92 705H1423.5V707H1526.92V705ZM1424.5 706V377.875H1422.5V706H1424.5ZM1424.5 377.875C1424.5 369.14 1422.71 361.079 1419.13 353.707L1417.33 354.582C1420.77 361.663 1422.5 369.422 1422.5 377.875H1424.5ZM1419.13 353.716C1417.3 349.858 1414.79 346.914 1411.57 344.942C1408.36 342.972 1404.5 342.012 1400.06 342.012V344.012C1404.21 344.012 1407.69 344.907 1410.53 346.648C1413.36 348.386 1415.63 351.009 1417.32 354.573L1419.13 353.716ZM1400.06 342.012C1391.79 342.012 1385.49 344.958 1381.37 350.94L1383.01 352.076C1386.7 346.73 1392.32 344.012 1400.06 344.012V342.012ZM1381.36 350.946C1377.54 356.58 1375.16 363.678 1374.17 372.193L1376.15 372.424C1377.12 364.142 1379.42 357.373 1383.02 352.069L1381.36 350.946ZM1374.17 372.19C1373.19 380.432 1372.7 388.675 1372.7 396.918H1374.7C1374.7 388.755 1375.18 380.591 1376.15 372.427L1374.17 372.19ZM1372.7 396.918V706H1374.7V396.918H1372.7ZM1373.7 705H1268.81V707H1373.7V705Z" fill="#8F8F8F" mask="url(#path-5-outside-3_18_24)"/>
</svg>
