<svg width="3483" height="3295" viewBox="0 0 3483 3295" fill="none" xmlns="http://www.w3.org/2000/svg">
<rect width="3483" height="3295" fill="black"/>
<path d="M421.023 1647.82C421.023 1693.84 412.713 1733.61 396.094 1767.14C379.474 1800.66 356.676 1826.51 327.699 1844.69C298.722 1862.88 265.625 1871.97 228.409 1871.97C191.193 1871.97 158.097 1862.88 129.119 1844.69C100.142 1826.51 77.3438 1800.66 60.7244 1767.14C44.1051 1733.61 35.7955 1693.84 35.7955 1647.82C35.7955 1601.8 44.1051 1562.02 60.7244 1528.5C77.3438 1494.98 100.142 1469.12 129.119 1450.94C158.097 1432.76 191.193 1423.67 228.409 1423.67C265.625 1423.67 298.722 1432.76 327.699 1450.94C356.676 1469.12 379.474 1494.98 396.094 1528.5C412.713 1562.02 421.023 1601.8 421.023 1647.82ZM369.886 1647.82C369.886 1610.03 363.565 1578.14 350.923 1552.15C338.423 1526.16 321.449 1506.48 300 1493.13C278.693 1479.78 254.83 1473.1 228.409 1473.1C201.989 1473.1 178.054 1479.78 156.605 1493.13C135.298 1506.48 118.324 1526.16 105.682 1552.15C93.1818 1578.14 86.9318 1610.03 86.9318 1647.82C86.9318 1685.6 93.1818 1717.49 105.682 1743.49C118.324 1769.48 135.298 1789.15 156.605 1802.51C178.054 1815.86 201.989 1822.53 228.409 1822.53C254.83 1822.53 278.693 1815.86 300 1802.51C321.449 1789.15 338.423 1769.48 350.923 1743.49C363.565 1717.49 369.886 1685.6 369.886 1647.82ZM509.872 1429.64H572.94L721.236 1791.85H726.349L874.645 1429.64H937.713V1866H888.281V1534.47H884.02L747.656 1866H699.929L563.565 1534.47H559.304V1866H509.872V1429.64ZM2201.05 1476.51V1429.64H2528.32V1476.51H2391.1V1866H2338.26V1476.51H2201.05ZM2896.24 1429.64H2949.08V1718.56C2949.08 1748.39 2942.05 1775.02 2927.98 1798.46C2914.06 1821.75 2894.39 1840.15 2868.96 1853.64C2843.54 1866.99 2813.71 1873.67 2779.47 1873.67C2745.24 1873.67 2715.41 1866.99 2689.99 1853.64C2664.56 1840.15 2644.82 1821.75 2630.75 1798.46C2616.83 1775.02 2609.87 1748.39 2609.87 1718.56V1429.64H2662.71V1714.3C2662.71 1735.6 2667.4 1754.57 2676.78 1771.18C2686.15 1787.66 2699.5 1800.66 2716.83 1810.18C2734.3 1819.55 2755.18 1824.24 2779.47 1824.24C2803.76 1824.24 2824.64 1819.55 2842.12 1810.18C2859.59 1800.66 2872.94 1787.66 2882.17 1771.18C2891.55 1754.57 2896.24 1735.6 2896.24 1714.3V1429.64ZM3400.62 1429.64V1866H3349.49L3111.7 1523.39H3107.44V1866H3054.6V1429.64H3105.74L3344.37 1773.1H3348.63V1429.64H3400.62Z" fill="black"/>
<path d="M1226.98 1481.56C1227.01 1479.19 1228.44 1477.06 1230.62 1476.12L2060.72 1121.26C2062.17 1120.64 2063.8 1120.61 2065.27 1121.19L2244.36 1191.34C2249.36 1193.3 2249.47 1200.33 2244.54 1202.44L1743.02 1417.07L1233.5 1637.3C1229.5 1639.03 1225.06 1636.07 1225.12 1631.72L1226.98 1481.56Z" fill="black"/>
<path d="M1658.72 1451.32L1819.2 1375.8L1833.42 2295.12L1658.72 2361.85V1451.32Z" fill="black"/>
<path d="M1227.03 748L2057.9 1120.74L1228.05 1476.78L1227.03 748Z" fill="white"/>
<path d="M1819.24 1379.87C1819.22 1377.42 1820.7 1375.2 1822.97 1374.27L2248.72 1200.93C2252.67 1199.32 2256.98 1202.22 2256.98 1206.48V2108.52C2256.98 2110.92 2255.54 2113.1 2253.33 2114.04L1834.59 2291.61C1830.65 2293.28 1826.28 2290.41 1826.24 2286.14L1819.24 1379.87Z" fill="white"/>
<path d="M1226.02 1640.1L1662.78 1452.2V2366.24L1227.03 2548L1226.02 1640.1Z" fill="white"/>
</svg>
